<?xml version="1.0" standalone="no"?>
<!DOCTYPE svg PUBLIC "-//W3C//DTD SVG 20010904//EN"
 "http://www.w3.org/TR/2001/REC-SVG-20010904/DTD/svg10.dtd">
<svg version="1.0" xmlns="http://www.w3.org/2000/svg"
 width="1563.000000pt" height="1563.000000pt" viewBox="0 0 1563.000000 1563.000000"
 preserveAspectRatio="xMidYMid meet">

<g transform="translate(0.000000,1563.000000) scale(0.100000,-0.100000)"
fill="#000000" stroke="none">
<path d="M7113 11116 c-89 -33 -154 -78 -231 -161 -124 -133 -183 -292 -185
-495 -1 -126 10 -189 55 -325 54 -162 150 -331 299 -526 l58 -77 -20 -103
c-11 -57 -24 -162 -27 -234 l-7 -130 -29 70 c-93 222 -204 405 -306 506 -88
87 -160 122 -260 127 -67 3 -81 1 -130 -25 -101 -53 -158 -157 -167 -303 -13
-222 86 -431 311 -655 168 -167 398 -316 552 -357 72 -20 52 -31 -44 -25 -219
14 -366 85 -770 374 -263 188 -337 235 -515 323 -144 72 -260 114 -412 152
-74 18 -120 22 -265 22 -193 1 -267 -13 -396 -75 -292 -139 -408 -437 -255
-659 83 -122 277 -219 415 -208 118 10 226 77 262 164 19 46 18 120 -3 155
-32 54 -122 76 -147 36 -14 -22 9 -40 35 -26 12 6 24 3 41 -10 19 -16 23 -28
22 -68 -1 -67 -36 -127 -94 -161 -39 -24 -56 -27 -130 -27 -107 1 -160 24
-246 110 -70 69 -89 120 -82 212 16 198 262 392 549 433 163 22 377 -14 585
-101 155 -65 269 -131 575 -335 158 -105 326 -211 375 -236 238 -123 477 -160
605 -95 57 29 62 47 12 47 -48 1 -125 32 -231 95 -235 140 -477 397 -572 610
-54 121 -73 207 -68 310 9 170 78 265 193 265 150 0 333 -204 535 -595 37 -71
72 -131 77 -132 6 -2 12 56 16 144 4 94 14 185 28 251 21 100 23 103 40 85 10
-10 104 -128 209 -263 153 -197 189 -249 185 -268 -28 -116 -24 -349 9 -467
41 -153 122 -234 223 -222 87 10 127 62 126 167 -1 110 -56 229 -199 431 -35
49 -64 97 -64 105 0 40 85 236 215 499 79 160 159 333 177 385 29 84 32 107
33 205 0 94 -3 116 -22 150 -113 209 -386 191 -615 -42 -109 -111 -227 -306
-284 -470 -10 -29 -22 -53 -25 -53 -10 0 -183 258 -213 317 -142 283 -172 571
-81 796 139 343 506 455 735 226 112 -112 173 -241 216 -457 5 -23 39 -43 61
-35 6 2 19 28 28 56 72 221 322 421 573 457 323 47 520 -145 500 -490 -9 -153
-107 -397 -220 -546 -28 -36 -127 -141 -222 -232 -263 -256 -353 -351 -406
-430 -77 -113 -111 -256 -77 -321 18 -37 35 -36 50 2 28 67 165 154 292 187
133 34 273 24 450 -32 61 -19 254 -114 690 -338 142 -73 335 -144 466 -170
138 -29 354 -24 469 10 97 29 200 81 274 139 229 180 234 474 11 696 -146 145
-372 217 -532 170 -72 -21 -157 -81 -198 -140 -42 -58 -75 -158 -75 -225 0
-114 66 -237 151 -280 50 -26 88 -25 130 3 58 39 65 112 15 135 -35 16 -42 -1
-15 -37 18 -25 19 -32 8 -52 -18 -35 -40 -48 -78 -49 -28 0 -43 8 -76 43 -51
53 -70 114 -62 197 18 205 212 351 410 310 131 -27 248 -115 308 -231 31 -59
34 -71 34 -159 0 -87 -3 -101 -32 -163 -45 -94 -127 -173 -235 -226 -119 -59
-202 -74 -373 -68 -248 9 -348 46 -935 349 -149 77 -282 132 -405 169 -100 30
-297 37 -385 15 -76 -20 -172 -62 -234 -105 -25 -17 -47 -31 -50 -31 -13 0 31
91 80 165 35 55 102 129 206 230 468 457 533 539 609 765 26 78 33 116 37 210
6 152 -9 240 -59 341 -83 164 -230 249 -435 249 -255 0 -506 -142 -667 -377
-12 -18 -25 -33 -28 -33 -3 0 -20 37 -37 83 -78 205 -212 355 -364 406 -89 30
-239 29 -325 -3z m766 -902 c52 -43 63 -129 37 -266 -20 -102 -51 -186 -163
-446 -53 -125 -115 -281 -137 -348 l-41 -122 -195 255 c-107 140 -198 261
-203 269 -9 15 22 113 60 188 99 199 303 407 461 472 78 32 141 32 181 -2z
m-150 -1493 c111 -170 151 -279 131 -364 -10 -48 -49 -87 -85 -87 -33 0 -91
53 -120 110 -30 59 -55 180 -55 267 0 66 16 188 26 205 7 11 25 -13 103 -131z"/>
<path d="M1420 7427 c-162 -47 -249 -147 -258 -297 -10 -178 66 -266 405 -470
211 -127 273 -201 273 -323 0 -84 -18 -135 -65 -183 -56 -57 -131 -84 -238
-84 -88 0 -137 16 -202 65 -70 54 -125 178 -125 282 0 31 -4 43 -15 43 -19 0
-23 -20 -35 -175 l-10 -130 36 -32 c40 -35 147 -77 238 -93 185 -32 370 20
471 132 55 61 78 129 79 229 0 63 -5 86 -32 142 -47 100 -101 147 -326 282
-110 65 -217 136 -238 157 -51 51 -79 110 -85 179 -10 106 58 203 165 235 111
34 209 8 293 -75 62 -63 86 -117 96 -218 6 -66 27 -91 36 -45 3 15 11 91 18
170 15 165 24 148 -96 188 -68 23 -100 28 -210 31 -86 2 -145 -2 -175 -10z"/>
<path d="M4174 7420 c-316 -83 -502 -358 -481 -713 8 -127 28 -210 77 -312 83
-172 239 -302 419 -348 l53 -13 -57 -13 c-43 -10 -55 -16 -53 -29 3 -12 12
-16 33 -14 17 1 66 3 110 3 93 2 117 -6 350 -111 179 -81 270 -105 358 -95 80
9 130 28 201 79 78 55 93 73 78 88 -9 9 -25 5 -65 -15 -29 -14 -75 -31 -101
-38 -69 -17 -197 -7 -281 24 -133 48 -289 116 -274 120 178 51 254 93 349 194
77 82 129 178 161 299 33 119 33 340 1 444 -37 117 -79 187 -167 277 -137 140
-280 193 -515 192 -89 0 -146 -5 -196 -19z m312 -31 c288 -53 461 -377 414
-779 -41 -357 -214 -540 -510 -540 -259 0 -426 142 -501 425 -28 104 -31 351
-6 462 43 190 135 326 265 392 91 46 220 62 338 40z"/>
<path d="M13920 7427 c-162 -47 -249 -147 -258 -297 -10 -178 66 -266 405
-470 211 -127 273 -201 273 -323 0 -84 -18 -135 -65 -183 -56 -57 -131 -84
-238 -84 -88 0 -137 16 -202 65 -70 54 -125 178 -125 282 0 31 -4 43 -15 43
-19 0 -23 -20 -35 -175 l-10 -130 36 -32 c40 -35 147 -77 238 -93 185 -32 370
20 471 132 55 61 78 129 79 229 0 63 -5 86 -32 142 -47 100 -101 147 -326 282
-110 65 -217 136 -238 157 -51 51 -79 110 -85 179 -10 106 58 203 165 235 111
34 209 8 293 -75 62 -63 86 -117 96 -218 6 -66 27 -91 36 -45 3 15 11 91 18
170 15 165 24 148 -96 188 -68 23 -100 28 -210 31 -86 2 -145 -2 -175 -10z"/>
<path d="M2340 7416 c0 -12 10 -16 45 -16 58 0 100 -22 120 -61 28 -53 37
-259 32 -709 -3 -293 -9 -438 -17 -468 -17 -58 -55 -88 -124 -96 -31 -4 -56
-12 -56 -18 0 -6 107 -8 318 -6 284 4 325 7 394 26 205 56 302 156 315 324 16
211 -108 345 -372 403 -29 7 -27 8 34 30 151 55 230 142 239 263 12 173 -76
267 -298 319 -47 11 -144 17 -347 20 -255 5 -283 3 -283 -11z m575 -68 c151
-49 217 -178 171 -332 -37 -122 -145 -186 -338 -199 l-68 -5 0 286 0 285 83
-6 c45 -3 114 -16 152 -29z m-7 -594 c102 -23 158 -52 211 -110 139 -152 90
-416 -94 -500 -112 -52 -266 -71 -299 -38 -39 39 -41 53 -44 366 l-3 306 83
-5 c46 -3 111 -11 146 -19z"/>
<path d="M6052 7418 c3 -7 29 -16 58 -20 67 -8 101 -33 120 -89 21 -64 21
-1069 -1 -1144 -17 -60 -55 -89 -128 -99 -28 -4 -51 -11 -51 -16 0 -6 185 -10
500 -10 l500 0 0 146 c0 148 -9 174 -31 91 -31 -116 -226 -192 -475 -185 -92
3 -98 4 -117 29 -30 42 -36 96 -37 352 l0 237 92 0 c226 0 306 -44 307 -172 1
-21 6 -38 11 -38 6 0 10 87 10 241 0 157 -3 238 -10 234 -5 -3 -10 -23 -11
-43 -1 -64 -22 -105 -65 -129 -48 -27 -142 -43 -251 -43 l-83 0 0 312 0 311
123 -6 c275 -13 402 -67 432 -184 7 -26 17 -49 24 -51 9 -3 11 33 9 140 l-3
143 -463 3 c-369 2 -463 0 -460 -10z"/>
<path d="M7340 7415 c0 -11 12 -15 45 -15 103 0 151 -48 224 -220 26 -63 133
-348 237 -632 l189 -518 61 0 c50 0 63 3 69 18 3 9 85 244 182 522 96 278 190
543 209 589 68 169 127 229 235 240 33 3 61 11 62 16 1 6 -86 11 -241 13 -193
2 -243 0 -240 -10 3 -7 27 -16 54 -19 68 -8 81 -16 94 -53 14 -44 2 -102 -63
-299 -71 -214 -310 -898 -312 -895 -9 10 -389 1061 -402 1111 -9 34 -13 74
-10 88 8 31 44 49 97 49 29 0 40 4 40 15 0 13 -36 15 -265 15 -229 0 -265 -2
-265 -15z"/>
<path d="M9122 7418 c3 -7 29 -16 58 -20 67 -8 101 -33 120 -89 21 -64 21
-1069 -1 -1144 -17 -60 -55 -89 -128 -99 -28 -4 -51 -11 -51 -16 0 -6 185 -10
500 -10 l500 0 0 146 c0 148 -9 174 -31 91 -31 -116 -226 -192 -475 -185 -92
3 -98 4 -117 29 -30 42 -36 96 -37 352 l0 237 92 0 c226 0 306 -44 307 -172 1
-21 6 -38 11 -38 6 0 10 87 10 241 0 157 -3 238 -10 234 -5 -3 -10 -23 -11
-43 -1 -64 -22 -105 -65 -129 -48 -27 -142 -43 -251 -43 l-83 0 0 312 0 311
123 -6 c275 -13 402 -67 432 -184 7 -26 17 -49 24 -51 9 -3 11 33 9 140 l-3
143 -463 3 c-369 2 -463 0 -460 -10z"/>
<path d="M10482 7418 c3 -7 27 -15 54 -18 58 -6 98 -29 118 -68 33 -63 37
-151 34 -637 -3 -453 -4 -483 -23 -530 -25 -60 -65 -90 -134 -99 -28 -4 -51
-11 -51 -16 0 -6 92 -10 240 -10 134 0 240 4 240 9 0 5 -28 14 -61 20 -108 19
-135 65 -149 258 -11 153 -13 873 -2 872 4 0 214 -263 467 -584 437 -555 462
-584 493 -585 l32 0 0 558 c0 306 5 590 10 630 16 123 48 168 126 178 66 9 84
14 84 24 0 6 -92 10 -246 10 -192 0 -245 -3 -242 -12 3 -7 29 -16 59 -19 148
-16 162 -79 157 -724 l-3 -421 -470 586 -470 585 -133 3 c-105 2 -133 0 -130
-10z"/>
<path d="M12220 7285 c0 -80 4 -145 9 -145 5 0 14 21 20 47 7 26 21 59 32 75
46 63 176 109 347 123 l93 7 -3 -604 c-3 -541 -5 -607 -20 -640 -22 -49 -67
-75 -145 -84 -141 -15 -48 -24 243 -24 179 0 303 4 300 9 -3 5 -33 12 -66 16
-67 8 -118 36 -137 77 -25 51 -33 222 -33 732 l0 518 88 -7 c238 -19 371 -86
389 -198 13 -83 23 -41 23 97 l0 146 -570 0 -570 0 0 -145z"/>
<path d="M5215 5331 c-52 -13 -76 -31 -96 -74 -33 -73 -19 -140 40 -190 26
-22 43 -27 85 -27 29 0 67 5 84 11 29 10 30 14 34 70 3 53 1 59 -17 59 -18 0
-20 -6 -17 -48 5 -64 -13 -82 -77 -82 -76 0 -111 45 -111 143 0 66 28 115 70
124 17 3 33 10 36 14 3 5 4 9 2 8 -2 -1 -16 -4 -33 -8z"/>
<path d="M11075 5331 c-52 -13 -76 -31 -96 -74 -33 -73 -19 -140 40 -190 26
-22 43 -27 85 -27 29 0 67 5 84 11 29 10 30 14 34 70 3 53 1 59 -17 59 -18 0
-20 -6 -17 -48 5 -64 -13 -82 -77 -82 -76 0 -111 45 -111 143 0 66 28 115 70
124 17 3 33 10 36 14 3 5 4 9 2 8 -2 -1 -16 -4 -33 -8z"/>
<path d="M1094 5314 c13 -12 16 -38 16 -117 0 -117 -5 -144 -29 -150 -9 -3 32
-5 92 -6 l107 -1 0 31 0 31 -19 -23 c-14 -18 -29 -23 -67 -23 l-49 -1 -3 63
-3 62 30 0 c16 0 37 -7 45 -16 15 -14 16 -12 16 25 l0 41 -20 -20 c-11 -11
-31 -20 -45 -20 -24 0 -25 2 -25 66 l0 67 47 -6 c29 -3 52 -12 60 -23 12 -16
13 -16 13 9 l0 27 -91 0 c-82 0 -89 -1 -75 -16z"/>
<path d="M1493 5315 c8 -8 36 -73 62 -145 35 -94 52 -130 63 -128 9 2 31 52
57 126 24 68 51 132 61 143 17 18 16 19 -17 19 -23 0 -30 -3 -20 -9 11 -7 7
-29 -23 -117 -20 -60 -40 -115 -45 -122 -5 -9 -22 27 -51 107 -23 66 -39 124
-35 130 4 7 -7 11 -30 11 -32 0 -35 -2 -22 -15z"/>
<path d="M1984 5314 c13 -12 16 -38 16 -117 0 -117 -5 -144 -29 -150 -9 -3 32
-5 92 -6 l107 -1 0 31 0 31 -19 -23 c-14 -18 -29 -23 -67 -23 l-49 -1 -3 63
-3 62 30 0 c16 0 37 -7 45 -16 15 -14 16 -12 16 25 l0 41 -20 -20 c-11 -11
-31 -20 -45 -20 -24 0 -25 2 -25 66 l0 67 47 -6 c29 -3 52 -12 60 -23 12 -16
13 -16 13 9 l0 27 -91 0 c-82 0 -89 -1 -75 -16z"/>
<path d="M2394 5314 c13 -12 16 -39 16 -127 0 -114 -4 -130 -30 -140 -8 -3 8
-5 35 -5 28 0 42 2 33 5 -25 6 -29 33 -26 140 l3 93 95 -120 c52 -66 98 -120
103 -120 4 0 7 57 7 126 0 69 5 134 10 145 10 17 7 19 -20 19 -29 0 -30 -1
-16 -16 13 -12 16 -38 16 -120 0 -57 -1 -104 -3 -104 -2 0 -46 54 -98 120 -71
90 -100 119 -117 120 -21 0 -22 -1 -8 -16z"/>
<path d="M2850 5305 l0 -25 20 20 c12 12 33 20 55 20 l35 0 0 -112 c0 -128 -5
-155 -29 -161 -9 -3 11 -5 44 -5 45 -1 54 1 38 8 -22 9 -23 14 -23 140 l0 130
30 0 c17 0 39 -9 50 -20 l20 -20 0 25 0 25 -120 0 -120 0 0 -25z"/>
<path d="M3556 5322 c31 -20 27 -267 -5 -275 -9 -3 20 -5 64 -6 138 -1 199 45
198 151 -1 94 -63 138 -193 138 -41 0 -70 -4 -64 -8z m155 -17 c120 -63 70
-255 -67 -255 -39 0 -44 19 -44 166 l0 104 40 0 c23 0 54 -7 71 -15z"/>
<path d="M4034 5314 c13 -12 16 -38 16 -117 0 -117 -5 -144 -29 -150 -9 -3 32
-5 92 -6 l107 -1 0 31 0 31 -19 -23 c-14 -18 -29 -23 -67 -23 l-49 -1 -3 63
-3 62 30 0 c16 0 37 -7 45 -16 15 -14 16 -12 16 25 l0 41 -20 -20 c-11 -11
-31 -20 -45 -20 -24 0 -25 2 -25 66 l0 67 47 -6 c29 -3 52 -12 60 -23 12 -16
13 -16 13 9 l0 27 -91 0 c-82 0 -89 -1 -75 -16z"/>
<path d="M4440 5310 c-23 -23 -26 -58 -7 -83 6 -9 34 -32 61 -50 65 -43 79
-64 63 -97 -23 -46 -94 -39 -119 12 l-17 33 0 -32 c-1 -39 20 -53 81 -53 56 0
88 27 88 75 0 35 -7 43 -97 106 -49 34 -57 68 -21 93 18 13 19 16 5 16 -9 0
-26 -9 -37 -20z"/>
<path d="M4533 5319 c10 -6 23 -23 29 -37 l12 -27 4 29 c4 31 -10 46 -43 46
-19 -1 -19 -1 -2 -11z"/>
<path d="M4816 5322 c32 -20 28 -267 -4 -275 -10 -3 8 -5 38 -5 30 0 47 2 38
5 -23 6 -32 72 -25 181 3 55 10 88 18 93 9 6 -2 9 -31 9 -25 0 -40 -4 -34 -8z"/>
<path d="M5287 5319 c19 -6 39 -21 47 -37 l15 -27 1 28 c0 29 -29 48 -73 46
-16 -1 -14 -3 10 -10z"/>
<path d="M5614 5314 c13 -12 16 -39 16 -127 0 -114 -4 -130 -30 -140 -8 -3 8
-5 35 -5 28 0 42 2 33 5 -25 6 -29 33 -26 140 l3 93 95 -120 c52 -66 98 -120
103 -120 4 0 7 57 7 126 0 69 5 134 10 145 10 17 7 19 -20 19 -29 0 -30 -1
-16 -16 13 -12 16 -38 16 -120 0 -57 -1 -104 -3 -104 -2 0 -46 54 -98 120 -71
90 -100 119 -117 120 -21 0 -22 -1 -8 -16z"/>
<path d="M6118 5318 c8 -8 12 -53 12 -135 0 -119 -1 -124 -22 -133 -16 -6 10
-9 85 -9 l107 -1 0 31 0 31 -19 -23 c-14 -18 -29 -23 -67 -23 l-49 -1 -3 63
-3 62 35 0 c23 0 39 -6 45 -17 8 -14 10 -8 10 27 0 25 -3 38 -6 30 -8 -21 -24
-30 -55 -30 -28 0 -28 1 -28 65 l0 65 38 0 c21 0 48 -7 60 -16 21 -14 22 -14
22 5 0 20 -6 21 -87 21 -68 0 -84 -3 -75 -12z"/>
<path d="M6528 5318 c8 -8 12 -53 12 -135 0 -119 -1 -124 -22 -133 -18 -7 -9
-9 37 -9 46 0 55 2 38 9 -22 9 -23 14 -23 140 l0 131 37 -3 c29 -2 41 -9 53
-30 13 -25 13 -31 0 -55 -8 -14 -30 -31 -48 -37 -30 -10 -31 -12 -12 -23 10
-7 36 -39 57 -70 34 -51 43 -58 73 -60 30 -2 32 -1 13 7 -12 5 -34 28 -49 52
-14 24 -36 53 -47 66 -16 17 -17 22 -5 22 23 0 58 43 58 72 0 44 -41 68 -118
68 -51 0 -63 -3 -54 -12z"/>
<path d="M7542 5307 c-12 -13 -22 -36 -22 -52 0 -20 -11 -37 -40 -62 -34 -29
-40 -40 -40 -74 0 -54 27 -79 85 -79 25 0 56 7 70 16 21 14 26 14 54 0 16 -9
45 -16 63 -15 32 1 32 1 7 9 -14 4 -38 15 -53 25 -24 16 -27 23 -21 54 10 60
16 71 34 71 9 0 26 7 37 16 18 15 18 15 -6 9 -52 -15 -99 -17 -121 -5 -23 11
-23 10 -5 -4 11 -9 28 -16 39 -16 17 0 18 -5 12 -37 -10 -56 -19 -58 -50 -14
-46 68 -44 171 4 171 24 0 33 -43 14 -70 -17 -24 -1 -27 21 -4 19 18 21 55 4
72 -19 19 -63 14 -86 -11z m-6 -129 c9 -18 30 -47 46 -64 l30 -32 -23 -16
c-57 -39 -119 -8 -119 60 0 26 31 84 45 84 3 0 12 -15 21 -32z"/>
<path d="M8203 5318 c9 -7 36 -71 60 -143 28 -83 49 -131 59 -133 11 -2 21 19
38 78 12 44 26 80 29 80 3 0 19 -36 34 -80 16 -45 34 -80 42 -80 8 0 29 50 54
129 23 72 48 137 57 145 14 15 13 16 -14 16 -25 0 -28 -3 -25 -27 2 -16 -11
-75 -30 -133 l-33 -105 -38 113 c-21 62 -36 122 -33 133 4 16 0 19 -34 19 -39
0 -39 0 -20 -19 33 -33 35 -81 10 -160 -13 -39 -26 -71 -29 -71 -10 0 -81 230
-75 241 4 5 -11 9 -31 9 -33 0 -35 -2 -21 -12z"/>
<path d="M8824 5314 c13 -12 16 -38 16 -117 0 -117 -5 -144 -29 -150 -9 -3 32
-5 92 -6 l107 -1 0 31 0 31 -19 -23 c-14 -18 -29 -23 -67 -23 l-49 -1 -3 63
-3 62 30 0 c16 0 37 -7 45 -16 15 -14 16 -12 16 25 l0 41 -20 -20 c-11 -11
-31 -20 -45 -20 -24 0 -25 2 -25 66 l0 67 47 -6 c29 -3 52 -12 60 -23 12 -16
13 -16 13 9 l0 27 -91 0 c-82 0 -89 -1 -75 -16z"/>
<path d="M9233 5316 c14 -14 17 -37 17 -119 0 -117 -5 -144 -29 -151 -9 -3 28
-4 81 -3 110 3 139 16 170 78 33 63 14 140 -44 183 -22 15 -48 21 -120 24 -87
4 -91 4 -75 -12z m151 -11 c18 -9 40 -28 49 -44 20 -34 22 -105 4 -141 -19
-39 -76 -71 -117 -68 l-35 3 -3 133 -3 132 37 0 c20 0 50 -7 68 -15z"/>
<path d="M9708 5318 c8 -8 12 -53 12 -135 0 -105 -2 -123 -17 -133 -14 -8 4
-10 72 -7 138 5 185 41 185 142 0 100 -58 144 -189 145 -58 0 -72 -3 -63 -12z
m160 -18 c61 -37 78 -134 36 -198 -29 -45 -135 -70 -148 -36 -3 9 -6 69 -6
135 l0 119 43 0 c24 0 56 -8 75 -20z"/>
<path d="M10176 5322 c32 -20 28 -267 -4 -275 -10 -3 8 -5 38 -5 30 0 47 2 38
5 -23 6 -32 72 -25 181 3 55 10 88 18 93 9 6 -2 9 -31 9 -25 0 -40 -4 -34 -8z"/>
<path d="M10488 5318 c15 -20 24 -122 17 -194 -6 -54 -11 -67 -29 -74 -15 -6
-6 -9 34 -9 43 0 50 2 33 9 -22 9 -23 15 -23 115 0 58 2 105 4 105 2 0 46 -53
98 -117 l93 -118 6 138 c4 105 8 141 20 148 10 6 4 9 -20 9 -27 0 -32 -3 -23
-12 8 -8 12 -50 12 -121 l0 -110 -97 122 c-64 80 -103 121 -116 121 -14 0 -17
-3 -9 -12z"/>
<path d="M11147 5319 c19 -6 39 -21 47 -37 l15 -27 1 28 c0 29 -29 48 -73 46
-16 -1 -14 -3 10 -10z"/>
<path d="M11738 5318 c8 -8 12 -53 12 -135 0 -119 -1 -124 -22 -133 -18 -7 -9
-9 37 -9 46 0 55 2 38 9 -20 8 -23 17 -23 63 l0 53 49 0 c34 -1 55 5 69 17 43
39 35 113 -14 136 -35 16 -162 15 -146 -1z m130 -15 c20 -18 25 -35 23 -80 -1
-32 -43 -56 -81 -48 -30 7 -30 7 -30 76 l0 69 34 0 c19 0 43 -8 54 -17z"/>
<path d="M12138 5318 c8 -8 12 -53 12 -135 0 -106 -2 -123 -17 -132 -13 -8 8
-10 80 -11 l97 0 0 27 c0 24 -1 25 -13 9 -17 -23 -96 -34 -108 -15 -12 20 -11
226 1 250 10 17 7 19 -27 19 -29 0 -34 -3 -25 -12z"/>
<path d="M12577 5311 c8 -31 -65 -238 -90 -256 -20 -14 -19 -15 23 -14 25 1
37 3 28 6 -20 5 -22 20 -8 57 9 24 14 26 74 26 63 0 64 -1 75 -31 15 -42 14
-47 -6 -52 -10 -3 7 -5 37 -5 30 0 48 2 38 5 -17 4 -38 48 -89 191 -31 85 -35
92 -60 92 -22 0 -26 -4 -22 -19z m77 -148 c7 -22 5 -23 -53 -23 l-61 0 22 58
c44 120 37 114 62 47 13 -33 26 -70 30 -82z"/>
<path d="M12950 5320 c12 -7 16 -36 18 -124 3 -105 2 -116 -17 -135 l-21 -21
48 1 c38 0 43 2 25 9 -22 9 -23 15 -23 121 l0 112 96 -121 c53 -67 100 -122
105 -122 5 0 9 60 9 133 0 90 4 137 12 145 9 9 4 12 -22 12 -25 0 -31 -3 -20
-9 10 -7 15 -36 18 -103 2 -52 3 -103 1 -113 -3 -14 -30 14 -102 103 -72 91
-103 122 -120 122 -18 0 -19 -2 -7 -10z"/>
<path d="M13448 5318 c15 -20 24 -122 17 -194 -6 -54 -11 -67 -29 -74 -15 -6
-6 -9 34 -9 43 0 50 2 33 9 -22 9 -23 15 -23 115 0 58 2 105 4 105 2 0 46 -53
98 -117 l93 -118 6 138 c4 105 8 141 20 148 10 6 4 9 -20 9 -27 0 -32 -3 -23
-12 8 -8 12 -50 12 -121 l0 -110 -97 122 c-64 80 -103 121 -116 121 -14 0 -17
-3 -9 -12z"/>
<path d="M13946 5322 c31 -20 27 -267 -5 -275 -9 -3 30 -5 87 -6 l102 -1 0 28
c0 16 -3 22 -8 15 -10 -16 -57 -33 -91 -33 -32 0 -41 18 -41 88 0 41 1 42 33
42 18 0 38 -5 45 -12 9 -9 12 -6 12 15 0 24 -2 26 -19 17 -11 -5 -31 -10 -45
-10 -25 0 -26 2 -26 66 l0 67 52 -5 c34 -4 56 -12 65 -24 12 -16 13 -16 13 9
l0 27 -92 0 c-51 0 -88 -4 -82 -8z"/>
<path d="M14364 5314 c13 -12 16 -39 16 -127 0 -114 -4 -130 -30 -140 -8 -3
10 -6 40 -6 42 0 51 2 38 10 -23 13 -27 129 -5 129 17 0 47 -33 77 -85 29 -49
37 -55 75 -54 27 0 28 1 8 9 -12 5 -34 28 -49 52 -16 24 -37 53 -48 66 -16 19
-17 22 -3 22 20 0 57 47 57 72 0 10 -11 30 -25 43 -21 22 -33 25 -95 25 -65 0
-70 -1 -56 -16z m121 -8 c22 -16 25 -71 4 -91 -8 -8 -29 -17 -47 -21 l-32 -6
0 66 c0 66 0 66 28 66 16 0 37 -6 47 -14z"/>
</g>
</svg>
