<?xml version="1.0" standalone="no"?>
<!DOCTYPE svg PUBLIC "-//W3C//DTD SVG 20010904//EN"
 "http://www.w3.org/TR/2001/REC-SVG-20010904/DTD/svg10.dtd">
<svg version="1.0" xmlns="http://www.w3.org/2000/svg"
 width="500.000000pt" height="500.000000pt" viewBox="0 0 500.000000 500.000000"
 preserveAspectRatio="xMidYMid meet">

<g transform="translate(0.000000,500.000000) scale(0.100000,-0.100000)"
fill="#000000" stroke="none">
<path d="M2284 3368 c-34 -23 -57 -50 -77 -88 -27 -51 -29 -61 -25 -140 5 -96
37 -179 101 -263 l37 -47 -7 -86 -6 -87 -33 69 c-55 115 -127 184 -195 184
-32 0 -85 -59 -93 -103 -22 -118 100 -286 269 -369 l60 -29 -50 6 c-64 7 -131
40 -242 118 -214 152 -302 190 -443 191 -85 1 -101 -2 -153 -27 -76 -38 -107
-82 -107 -155 0 -66 23 -102 83 -131 54 -26 103 -27 143 -2 53 32 53 111 1
111 -20 -1 -20 -2 -4 -11 23 -13 22 -54 -3 -79 -33 -33 -93 -27 -137 14 -31
28 -38 41 -38 74 0 89 104 162 230 162 125 0 192 -27 386 -155 171 -114 263
-148 334 -125 l35 11 -69 35 c-118 59 -235 198 -255 303 -8 47 10 108 38 127
53 34 126 -30 208 -181 l43 -80 7 82 c4 46 10 88 13 93 4 6 38 -30 78 -81 l71
-91 -3 -74 c-5 -120 25 -184 86 -184 71 0 68 76 -7 188 -25 38 -38 66 -34 76
6 16 8 16 25 0 18 -16 21 -15 59 10 l40 26 0 -23 c0 -36 11 -39 33 -10 28 35
93 63 150 63 65 0 139 -27 287 -103 196 -102 303 -126 414 -93 88 27 156 98
156 164 0 40 -24 99 -53 131 -30 32 -114 71 -155 71 -40 0 -78 -19 -112 -55
-20 -22 -25 -37 -25 -81 0 -46 4 -57 29 -81 27 -26 28 -26 12 -3 -34 51 -11
136 44 165 111 58 254 -70 199 -178 -24 -46 -74 -88 -123 -102 -104 -31 -157
-18 -390 93 -162 77 -186 86 -251 90 -70 4 -89 -1 -178 -46 -4 -2 -4 3 -1 11
3 9 39 41 79 72 116 88 217 201 195 215 -6 4 3 31 21 64 59 108 49 241 -22
300 -84 71 -213 51 -318 -48 -26 -24 -45 -36 -48 -29 -11 31 -92 117 -125 134
-59 30 -126 25 -184 -13z m163 -1 c19 -10 13 -12 -45 -12 -45 -1 -78 -7 -101
-19 -18 -10 -30 -13 -26 -7 12 21 80 50 115 50 19 0 45 -5 57 -12z m445 -27
c23 -7 48 -24 63 -44 32 -42 32 -52 0 -20 -28 28 -83 54 -115 54 -11 0 -20 5
-20 10 0 13 25 13 72 0z m-413 -108 c74 -7 75 -7 83 -39 12 -47 26 -49 45 -7
l18 36 175 -7 c96 -4 179 -11 184 -16 21 -20 -38 -195 -77 -227 -10 -9 -45
-10 -121 -5 l-106 6 0 29 c0 60 -44 107 -98 108 -47 0 -91 -23 -142 -75 -40
-41 -49 -45 -91 -45 -96 0 -107 6 -125 68 -15 50 -15 157 0 180 4 8 137 4 255
-6z m125 -168 c9 -8 16 -31 16 -50 l0 -34 -77 0 c-101 0 -114 9 -71 45 33 28
83 54 105 55 6 0 19 -7 27 -16z m-104 -406 c0 -18 -17 -5 -44 35 l-29 42 36
-34 c21 -19 37 -39 37 -43z m50 -133 c39 -57 54 -98 46 -130 -14 -55 -73 -16
-87 57 -7 38 -2 118 7 118 2 0 17 -20 34 -45z"/>
<path d="M3443 2656 c3 -7 0 -19 -6 -25 -8 -8 -8 -11 0 -11 11 0 23 22 23 41
0 5 -5 9 -11 9 -6 0 -9 -6 -6 -14z"/>
<path d="M384 2286 c-66 -66 -41 -128 81 -205 80 -51 105 -77 105 -112 0 -41
-9 -58 -41 -74 -69 -36 -144 -5 -155 66 -9 55 -24 49 -24 -11 0 -44 3 -51 28
-63 105 -54 232 -4 232 91 0 55 -29 92 -104 136 -112 66 -142 121 -91 171 55
56 155 6 155 -78 0 -18 2 -19 10 -7 5 8 10 33 10 56 0 51 -23 64 -111 64 -56
0 -64 -3 -95 -34z"/>
<path d="M747 2313 c44 -9 48 -25 48 -218 0 -193 -4 -209 -48 -218 -12 -2 22
-5 76 -6 119 -1 176 12 212 49 29 30 36 90 16 129 -15 26 -68 61 -96 61 -15 1
-10 6 17 21 44 23 58 45 58 92 0 68 -68 97 -220 95 -47 0 -75 -3 -63 -5z m210
-48 c53 -61 0 -145 -93 -145 -23 0 -24 2 -24 91 l0 92 47 -6 c35 -4 53 -12 70
-32z m5 -183 c87 -51 50 -177 -56 -189 -35 -4 -50 -2 -57 8 -5 8 -9 58 -9 113
l0 98 48 -7 c26 -4 59 -14 74 -23z"/>
<path d="M1279 2297 c-65 -35 -102 -93 -107 -170 -2 -34 1 -82 8 -105 13 -52
72 -120 119 -139 27 -11 31 -17 20 -24 -10 -6 0 -9 29 -9 26 0 68 -12 110 -31
84 -40 145 -43 191 -10 34 25 36 40 3 22 -33 -18 -103 -12 -161 13 l-55 24 31
6 c17 4 49 23 71 42 98 83 103 265 10 351 -61 57 -190 72 -269 30z m174 -1
c74 -31 113 -114 105 -227 -9 -123 -68 -189 -169 -189 -59 0 -106 31 -138 90
-21 37 -25 58 -25 125 0 84 20 140 61 177 42 38 110 48 166 24z"/>
<path d="M1945 2313 c44 -11 45 -17 45 -218 0 -201 -1 -207 -45 -218 -11 -2
53 -5 143 -6 l162 -1 -1 48 c0 39 -2 43 -9 24 -11 -27 -57 -48 -123 -55 -69
-7 -77 5 -77 114 0 99 -3 95 74 82 30 -5 41 -12 52 -37 13 -29 13 -27 13 49 0
76 0 78 -13 49 -14 -31 -44 -44 -102 -44 -24 0 -24 1 -24 100 l0 100 43 0 c67
0 115 -18 132 -48 14 -27 14 -27 15 21 l0 47 -152 -1 c-84 -1 -144 -4 -133 -6z"/>
<path d="M2366 2313 c12 -2 29 -12 38 -22 13 -14 111 -265 161 -409 3 -7 15
-12 27 -10 18 3 31 31 90 197 67 192 91 236 132 244 11 2 -15 4 -59 5 -46 0
-69 -3 -55 -7 14 -4 26 -15 28 -27 2 -17 -97 -326 -117 -362 -8 -15 -144 355
-137 374 3 7 15 14 28 17 13 2 -17 4 -67 4 -49 0 -80 -2 -69 -4z"/>
<path d="M2937 2313 c44 -9 48 -25 48 -218 0 -193 -4 -209 -48 -218 -12 -2 51
-5 141 -6 l162 -1 0 42 c0 41 -1 42 -15 21 -16 -23 -56 -38 -123 -46 -63 -8
-72 6 -72 115 l0 91 51 -6 c57 -7 76 -18 82 -50 2 -12 4 14 4 58 0 44 -2 70
-4 58 -6 -32 -25 -43 -82 -50 l-51 -6 0 102 0 101 50 0 c63 0 117 -22 130 -52
7 -19 9 -15 9 25 l1 47 -152 -1 c-84 -1 -143 -4 -131 -6z"/>
<path d="M3380 2311 c43 -12 50 -42 50 -221 0 -178 -6 -204 -53 -213 -12 -2
16 -4 63 -5 69 0 79 2 53 9 -21 6 -35 17 -38 32 -3 12 -4 90 -3 174 l3 152
145 -185 c80 -101 151 -184 158 -184 9 0 12 46 12 198 0 212 5 236 53 245 12
2 -16 4 -63 4 -47 0 -75 -2 -62 -4 46 -9 53 -37 50 -209 l-3 -158 -149 187
-150 187 -45 -1 c-36 -1 -40 -3 -21 -8z"/>
<path d="M3920 2273 c1 -45 1 -47 14 -24 18 33 53 50 104 51 l42 0 0 -199 c0
-211 -1 -215 -50 -224 -14 -2 20 -4 75 -5 76 0 92 2 69 9 -20 6 -34 17 -38 31
-3 13 -6 107 -6 209 l0 186 56 -8 c58 -8 81 -21 94 -54 7 -15 9 -8 9 28 l1 47
-185 0 -185 0 0 -47z"/>
<path d="M4438 2304 c-35 -19 -48 -43 -48 -92 0 -48 23 -75 118 -136 98 -62
116 -93 91 -149 -22 -48 -106 -63 -153 -26 -14 11 -32 41 -40 67 l-15 47 0
-56 c-1 -65 6 -74 73 -89 96 -21 186 31 186 107 0 60 -25 89 -120 145 -101 60
-126 113 -75 163 55 56 151 6 156 -82 2 -28 17 25 18 64 1 26 -4 33 -30 42
-45 15 -129 13 -161 -5z"/>
<path d="M323 1695 c0 -38 2 -53 4 -32 2 20 2 52 0 70 -2 17 -4 1 -4 -38z"/>
<path d="M457 1720 c9 -22 18 -39 19 -37 6 6 -19 77 -27 77 -4 0 0 -18 8 -40z"/>
<path d="M786 1703 c26 -35 49 -63 51 -63 6 0 -31 50 -67 90 -17 19 -10 7 16
-27z"/>
<path d="M3753 1695 c0 -38 2 -53 4 -32 2 20 2 52 0 70 -2 17 -4 1 -4 -38z"/>
<path d="M3883 1695 c0 -38 2 -53 4 -32 2 20 2 52 0 70 -2 17 -4 1 -4 -38z"/>
<path d="M4025 1750 c3 -5 8 -10 11 -10 2 0 4 5 4 10 0 6 -5 10 -11 10 -5 0
-7 -4 -4 -10z"/>
<path d="M4310 1753 c0 -5 12 -20 28 -34 l27 -24 -25 30 c-14 17 -26 32 -27
34 -2 2 -3 0 -3 -6z"/>
<path d="M4623 1695 c0 -38 2 -53 4 -32 2 20 2 52 0 70 -2 17 -4 1 -4 -38z"/>
<path d="M4155 1730 c10 -11 20 -20 23 -20 3 0 -3 9 -13 20 -10 11 -20 20 -23
20 -3 0 3 -9 13 -20z"/>
<path d="M3370 1716 c0 -2 8 -10 18 -17 15 -13 16 -12 3 4 -13 16 -21 21 -21
13z"/>
<path d="M3502 1695 c0 -16 2 -22 5 -12 2 9 2 23 0 30 -3 6 -5 -1 -5 -18z"/>
<path d="M4050 1695 c0 -5 5 -17 10 -25 5 -8 10 -10 10 -5 0 6 -5 17 -10 25
-5 8 -10 11 -10 5z"/>
<path d="M4195 1680 c10 -11 20 -20 23 -20 3 0 -3 9 -13 20 -10 11 -20 20 -23
20 -3 0 3 -9 13 -20z"/>
<path d="M3602 1665 c0 -16 2 -22 5 -12 2 9 2 23 0 30 -3 6 -5 -1 -5 -18z"/>
<path d="M4381 1664 c13 -17 26 -30 28 -27 3 2 -8 16 -24 31 l-28 27 24 -31z"/>
<path d="M480 1665 c0 -5 5 -17 10 -25 5 -8 10 -10 10 -5 0 6 -5 17 -10 25 -5
8 -10 11 -10 5z"/>
<path d="M3410 1666 c0 -2 8 -10 18 -17 15 -13 16 -12 3 4 -13 16 -21 21 -21
13z"/>
<path d="M4680 1650 c6 -11 13 -20 16 -20 2 0 0 9 -6 20 -6 11 -13 20 -16 20
-2 0 0 -9 6 -20z"/>
<path d="M610 1640 c0 -5 5 -10 11 -10 5 0 7 5 4 10 -3 6 -8 10 -11 10 -2 0
-4 -4 -4 -10z"/>
</g>
</svg>
