<?xml version="1.0" standalone="no"?>
<!DOCTYPE svg PUBLIC "-//W3C//DTD SVG 20010904//EN"
 "http://www.w3.org/TR/2001/REC-SVG-20010904/DTD/svg10.dtd">
<svg version="1.0" xmlns="http://www.w3.org/2000/svg"
 width="500.000000pt" height="500.000000pt" viewBox="0 0 500.000000 500.000000"
 preserveAspectRatio="xMidYMid meet">

<g transform="translate(0.000000,500.000000) scale(0.100000,-0.100000)"
fill="#000000" stroke="none">
<path d="M0 2500 l0 -2500 2500 0 2500 0 0 2500 0 2500 -2500 0 -2500 0 0
-2500z m3666 1144 c-3 -9 0 -11 11 -7 12 5 15 2 10 -10 -4 -10 -2 -16 6 -14 7
1 23 -20 37 -48 30 -60 39 -178 18 -237 -12 -36 -13 -33 -13 55 0 79 -4 100
-26 147 -15 30 -36 66 -48 79 -11 13 -21 28 -21 33 0 5 -6 6 -12 2 -10 -6 -9
-3 0 8 15 19 46 12 38 -8z m664 -78 c-19 -64 -49 -95 -159 -168 -58 -37 -101
-68 -96 -68 5 0 54 10 110 21 100 22 145 38 178 67 29 26 21 -9 -13 -56 -36
-50 -80 -74 -182 -98 -43 -10 -78 -21 -78 -25 0 -9 235 -23 284 -17 45 5 45
-1 2 -30 -31 -21 -82 -33 -201 -48 l-49 -6 73 -34 c41 -19 82 -34 93 -34 34 0
8 -19 -48 -36 -48 -14 -72 -14 -167 -5 -61 6 -112 9 -113 8 -5 -5 120 -86 147
-95 22 -8 21 -9 -13 -16 -42 -8 -97 3 -198 40 -39 14 -74 23 -77 21 -7 -7 69
-117 98 -143 13 -12 33 -27 44 -33 17 -10 13 -11 -24 -6 -59 8 -95 28 -173 97
l-68 60 0 -37 c0 -24 -15 -65 -45 -122 -29 -55 -45 -98 -45 -121 0 -28 -3 -33
-10 -22 -15 23 -12 116 6 178 11 38 15 76 11 121 -3 38 -1 83 6 105 26 89 213
240 461 373 133 71 192 115 224 168 23 36 28 39 30 22 2 -12 -1 -39 -8 -61z
m-677 -93 c4 -3 -14 -19 -41 -34 -62 -35 -88 -65 -101 -116 -13 -47 -6 -86 35
-218 16 -51 25 -103 25 -146 0 -73 -6 -93 -100 -295 -85 -184 -100 -319 -52
-474 11 -35 19 -66 17 -68 -7 -7 -69 105 -92 164 -55 148 -53 295 12 588 54
247 59 311 32 426 -5 22 -26 41 -47 43 -11 0 -17 5 -14 9 7 13 105 103 112
104 3 0 13 4 21 7 8 4 42 8 75 10 33 2 72 4 86 5 14 1 29 -1 32 -5z m-1238
-142 c3 -11 -8 -72 -24 -138 -42 -166 -51 -249 -51 -454 l0 -179 64 0 c49 0
65 -4 70 -16 3 -9 6 -112 6 -231 l0 -215 29 -29 c23 -22 39 -29 70 -29 22 0
51 5 64 11 49 22 52 38 55 282 l3 227 95 0 96 0 -4 -243 -3 -243 -30 -60 c-40
-78 -98 -118 -195 -134 -116 -19 -228 7 -294 68 -32 30 -75 113 -78 152 -1 14
-4 -29 -8 -95 l-5 -120 -70 0 c-65 0 -70 2 -73 23 -4 28 -3 28 -71 -5 -48 -24
-67 -28 -141 -27 -65 1 -97 6 -135 23 -66 30 -131 84 -167 140 -26 42 -34 65
-52 143 l-6 28 -36 -40 c-20 -22 -34 -46 -31 -52 2 -7 32 -60 66 -118 44 -75
57 -106 48 -112 -20 -13 -181 -9 -200 4 -9 7 -38 54 -66 103 -44 81 -52 90
-80 93 l-31 3 0 -93 c0 -60 -4 -98 -12 -106 -17 -17 -162 -16 -177 2 -8 9 -11
107 -9 337 l3 324 185 3 185 2 42 42 c24 23 43 49 43 57 0 7 -26 38 -57 67
l-57 52 -39 -34 c-47 -43 -82 -57 -124 -49 -34 6 -83 58 -83 88 0 35 -21 25
-45 -23 -44 -86 -77 -105 -112 -63 -9 11 -22 -8 -67 -102 -40 -81 -64 -119
-81 -127 -58 -26 -86 26 -94 175 l-6 108 -34 -25 c-46 -35 -91 -42 -130 -22
-31 16 -61 61 -61 91 0 29 -15 15 -48 -45 -36 -66 -56 -82 -90 -69 -52 20 -14
186 62 265 52 54 100 60 143 18 34 -34 18 -52 -27 -29 -31 16 -34 16 -58 -2
-33 -25 -79 -108 -87 -158 -6 -37 -3 -35 42 43 27 45 54 87 61 94 21 21 39 -9
44 -72 5 -69 27 -100 70 -100 39 0 116 71 122 114 32 209 41 261 60 320 22 71
46 100 67 79 8 -8 4 -38 -15 -114 -42 -165 -69 -375 -64 -503 6 -189 16 -183
150 91 107 220 141 263 201 263 40 0 77 -24 77 -51 0 -24 -10 -24 -50 -1 l-31
17 -39 -43 c-37 -41 -76 -129 -68 -154 2 -6 25 25 51 70 26 44 52 84 58 87 17
11 30 -9 35 -56 11 -96 25 -119 75 -119 39 0 114 68 123 111 14 70 126 136
126 74 0 -14 -5 -25 -12 -25 -19 0 -58 -42 -58 -62 0 -10 28 -45 62 -77 l63
-60 33 26 c130 99 212 143 212 113 0 -5 -39 -37 -87 -71 -133 -93 -142 -102
-133 -149 7 -40 0 -116 -14 -138 -4 -8 0 -39 10 -71 l18 -57 37 57 c42 65 81
97 164 136 53 25 72 28 155 28 80 -1 104 -5 151 -27 63 -29 119 -82 159 -151
l27 -47 6 157 c4 87 7 208 7 268 l0 110 -45 -100 c-47 -105 -74 -138 -109
-133 -36 5 -49 49 -36 120 23 125 104 248 165 248 13 0 26 4 30 9 3 6 17 67
31 137 14 70 32 140 40 156 17 32 40 37 49 9z m834 -160 c48 -37 91 -107 91
-150 0 -74 -39 -263 -66 -319 l-28 -57 -6 65 c-4 36 -17 89 -29 118 -11 29
-21 71 -21 93 l0 41 -62 -57 c-71 -64 -116 -90 -173 -100 l-40 -7 38 32 c39
33 117 140 117 161 0 8 -4 9 -13 0 -8 -6 -22 -12 -33 -14 -10 -2 -27 -7 -36
-11 -9 -4 -22 -8 -30 -10 -7 -1 -20 -6 -28 -10 -21 -13 -20 -11 120 132 136
141 137 141 199 93z m-675 -197 c19 -19 19 -17 2 -59 -14 -33 -87 -95 -112
-95 -20 0 -25 -16 -13 -46 13 -35 25 -44 64 -44 37 0 95 30 156 81 50 41 69
48 69 25 0 -18 -98 -100 -151 -127 -22 -11 -59 -19 -84 -19 -38 0 -52 5 -77
30 -29 29 -30 34 -26 94 4 71 34 122 92 157 38 23 60 24 80 3z m1078 -671 l3
-258 150 0 c83 -1 156 -4 163 -9 16 -10 16 -128 0 -144 -13 -13 -461 -18 -492
-6 -14 5 -16 45 -16 340 l0 334 95 0 95 0 2 -257z"/>
<path d="M3469 3443 c-13 -16 -12 -17 4 -4 16 13 21 21 13 21 -2 0 -10 -8 -17
-17z"/>
<path d="M3385 3398 l-50 -53 53 50 c48 46 57 55 49 55 -1 0 -25 -24 -52 -52z"/>
<path d="M3429 3403 c-13 -16 -12 -17 4 -4 9 7 17 15 17 17 0 8 -8 3 -21 -13z"/>
<path d="M3389 3363 c-13 -16 -12 -17 4 -4 16 13 21 21 13 21 -2 0 -10 -8 -17
-17z"/>
<path d="M2228 2953 c-14 -16 -34 -44 -43 -63 -35 -69 -58 -190 -36 -190 16 0
121 236 121 270 0 17 -15 11 -42 -17z"/>
<path d="M1474 2579 c-28 -30 -28 -31 -10 -45 35 -25 46 -17 46 31 0 25 -1 45
-3 45 -2 0 -16 -14 -33 -31z"/>
<path d="M1230 2330 l0 -80 63 0 c50 0 68 4 85 20 27 26 28 37 2 45 -32 10
-50 34 -50 66 0 28 -1 29 -50 29 l-50 0 0 -80z"/>
<path d="M1877 2396 c-50 -18 -76 -42 -98 -91 -36 -77 -15 -173 50 -228 40
-34 93 -43 151 -28 42 11 90 44 90 62 0 5 -28 9 -62 11 l-63 3 0 65 0 65 168
0 167 0 0 40 0 40 -90 -3 c-89 -3 -92 -3 -125 27 -34 29 -90 51 -130 51 -11
-1 -37 -7 -58 -14z"/>
<path d="M1370 2382 c0 -12 19 -26 26 -19 2 2 -2 10 -11 17 -9 8 -15 8 -15 2z"/>
<path d="M3065 3080 c-66 -66 -117 -120 -115 -120 3 0 59 54 125 120 66 66
117 120 115 120 -3 0 -59 -54 -125 -120z"/>
<path d="M3189 3163 c-13 -16 -12 -17 4 -4 16 13 21 21 13 21 -2 0 -10 -8 -17
-17z"/>
<path d="M3149 3123 c-13 -16 -12 -17 4 -4 9 7 17 15 17 17 0 8 -8 3 -21 -13z"/>
<path d="M3109 3083 c-13 -16 -12 -17 4 -4 16 13 21 21 13 21 -2 0 -10 -8 -17
-17z"/>
<path d="M3069 3043 c-13 -16 -12 -17 4 -4 9 7 17 15 17 17 0 8 -8 3 -21 -13z"/>
<path d="M3029 3003 c-13 -16 -12 -17 4 -4 16 13 21 21 13 21 -2 0 -10 -8 -17
-17z"/>
<path d="M2491 2905 c-33 -38 -36 -45 -22 -45 13 0 71 56 71 69 0 20 -18 11
-49 -24z"/>
</g>
</svg>
